{"title":"The Green Mile - Il Miglio Verde  (1999).BRrip.XviD - Italian en","uid":11744021,"size":3420028689,"categoryP":"video","categoryS":"movies","magnet":"?xt=urn:btih:8ea6e53b68e4dd01c1280355c78837fc51274229&amp;dn=The+Green+Mile+-+Il+Miglio+Verde++%281999%29.BRrip.XviD+-+Italian+en&amp;tr=udp%3A%2F%2Ftracker.openbittorrent.com%3A80&amp;tr=udp%3A%2F%2Fopen.demonii.com%3A1337&amp;tr=udp%3A%2F%2Ftracker.coppersurfer.tk%3A6969&amp;tr=udp%3A%2F%2Fexodus.desync.com%3A6969","seeders":9,"leechers":6,"uploader":"robbyrs4","files":5,"time":1425915700,"description":"The Green Mile - Il Miglio Verde  (1999).BRrip.XviD - Italian english.Ac3 - 5.1 - Sub Ita Eng.MIRCrew\n\n\nIl Miglio Verde - The Green Mile (1999).BRrip.XviD - Italian English.Ac3 - 5.1 - Sub Ita Eng.MIRCrew\n\n\n\n[center]\n\n[color=red][b][img]http://s19.postimg.org/rr1b4yhxv/banner_mircrew_2015.png[/img]\n\n[u]NO FOUND ONLY ORIGINAL RELEASE[/u]\n\nIl Miglio Verde - The Green Mile (1999)\n\n[img]http://i.imgur.com/y6jioKc.png[/img]\n\n\n[URL=http://www.imdb.com/title/tt0120689/][IMG]http://www.userlogos.org/files/logos/Sucka/imdb_new.png[/IMG][/URL]  \n\n[img]http://s19.postimg.org/vz5tzn42b/1_scheda.png[/img]\n\nTitolo originale \tThe Green Mile\nPaese di produzione \tUSA\nAnno \t1999\nDurata \t182 min\nRapporto \t1.85:1\nGenere \tdrammatico, fantastico\nRegia \tFrank Darabont\nSoggetto \tStephen King\nSceneggiatura \tFrank Darabont\nProduttore \tFrank Darabont\nCasa di produzione \tWarner Bros., Castle Rock Entertainment, Darkwoods Productions\nDistribuzione (Italia) \tWarner Bros\nFotografia \tDavid Tattersall\nMontaggio \tRichard Francis-Bruce\nEffetti speciali \tIndustrial Light &amp; Magic\nMusiche \tThomas Newman\nScenografia \tTerence Marsh\n\n[img]http://s19.postimg.org/q8fnlww2b/1_cast.png[/img]\n\n\n\n    Tom Hanks: Paul Edgecombe\n    David Morse: Brutus &quot;Brutal&quot; Howell\n    Michael Clarke Duncan: John Coffey\n    Bonnie Hunt: Jan Edgecombe\n    James Cromwell: Hal Moores\n    Michael Jeter: Eduard Delacroix\n    Graham Greene: Arlen Bitterbuck\n    Doug Hutchison: Percy Wetmore\n    Sam Rockwell: &quot;Wild Bill&quot; Wharton\n    Barry Pepper: Dean Stanton\n    Jeffrey DeMunn: Harry Terwilliger\n    Patricia Clarkson: Melinda Moores\n    Harry Dean Stanton: Toot\n    Dabbs Greer: Paul Edgecombe (anziano)\n    Eve Brent: Elaine Connelly\n    William Sadler: Klaus Detterick\n    Paula Malcomson: Marjorie Detterick\n    Bill McKinney: Jack Van Hay\n    Gary Sinise: Avv. Hammersmith\n    Scotty Leavenworth: figlio di Hammersmith\n    Bill Gratton: Earl\n\n\n\n[img]http://s19.postimg.org/okgi79i6r/1_trama.png[/img]. \n\nUn giorno del 1999, in Louisiana, l'anziano Paul Edgecombe, da alcuni anni ospite presso una casa di riposo, durante la visione del film Cappello a cilindro, scoppia a piangere e, accompagnato dall'amica Elaine in una stanza, inizia a raccontarle la storia dell'anno in cui conobbe John Coffey e ...................................\n\n[img]http://s19.postimg.org/fzn6g380j/1_story.png[/img]\n\nThe lives of guards on Death Row are affected by one of their charges: a black man accused of child murder and rape, yet who has a mysterious gift.........\n &lt;a href=&quot;\nhttp://s19.postimg.org/xl4wk2z4j/vlcsnap_2015_03_09_15h33m34s247.png[/img]&quot; rel=&quot;nofollow&quot; target=&quot;_NEW&quot;&gt;\nhttp://s19.postimg.org/xl4wk2z4j/vlcsnap_2015_03_09_15h33m34s247.png[/img]&lt;/a&gt;\n\n[url=http://postimg.org/image/dt2qksnkf/][img]http://s19.postimg.org/dt2qksnkf/vlcsnap_2015_03_09_15h33m39s46.png[/img][/url]\n\n[url=http://postimg.org/image/sxyuibbrj/][img]http://s19.postimg.org/sxyuibbrj/vlcsnap_2015_03_09_15h34m03s20.png[/img][/url]\n\n[url=http://postimg.org/image/sazxssevj/][img]http://s19.postimg.org/sazxssevj/vlcsnap_2015_03_09_15h34m08s74.png[/img][/url]\n\n[IMG]http://img153.imageshack.us/img153/3158/restateinseedblood.gif[/img]\n\n\n[img]http://imgur.com/lvhU6.gif[/img]\n\n\n[img]http://s19.postimg.org/a2jaz9qvn/1_dati.png[/img]\n\n\n[spoiler]\nGeneral\nComplete name                            : Il Miglio Verde - The Green Mile (1999).ita.eng.sub.ita.eng.MIRCrewIl Miglio Verde - The Green Mile (1999).ita.eng.sub.ita.eng.MIRCrew.avi\nFormat                                   : AVI\nFormat/Info                              : Audio Video Interleave\nFormat profile                           : OpenDML\nFile size                                : 3.17 GiB\nDuration                                 : 3h 8mn\nOverall bit rate                         : 2 407 Kbps\nMovie name                               : MIRCrew by robbyrs\nWriting application                      : VirtualDubMod 1.5.10.2 (build 2540/release)\nWriting library                          : VirtualDubMod build 2540/release\n\nVideo\nID                                       : 0\nFormat                                   : MPEG-4 Visual\nFormat profile                           : Simple@L3\nFormat settings, BVOP                    : No\nFormat settings, QPel                    : No\nFormat settings, GMC                     : No warppoints\nFormat settings, Matrix                  : Default (H.263)\nCodec ID                                 : XVID\nCodec ID/Hint                            : XviD\nDuration                                 : 3h 8mn\nBit rate                                 : 1 496 Kbps\nWidth                                    : 720 pixels\nHeight                                   : 404 pixels\nDisplay aspect ratio                     : 16:9\nFrame rate                               : 23.976 fps\nColor space                              : YUV\nChroma subsampling                       : 4:2:0\nBit depth                                : 8 bits\nScan type                                : Progressive\nCompression mode                         : Lossy\nBits/(Pixel*Frame)                       : 0.214\nStream size                              : 1.97 GiB (62%)\nWriting library                          : XviD 64\n\nAudio #1\nID                                       : 1\nFormat                                   : AC-3\nFormat/Info                              : Audio Coding 3\nMode extension                           : CM (complete main)\nCodec ID                                 : 2000\nDuration                                 : 3h 8mn\nBit rate mode                            : Constant\nBit rate                                 : 448 Kbps\nChannel(s)                               : 6 channels\nChannel positions                        : Front: L C R, Side: L R, LFE\nSampling rate                            : 48.0 KHz\nBit depth                                : 16 bits\nCompression mode                         : Lossy\nStream size                              : 604 MiB (19%)\nAlignment                                : Split accross interleaves\nInterleave, duration                     : 42 ms (1.00 video frame)\nInterleave, preload duration             : 500 ms\n\nAudio #2\nID                                       : 2\nFormat                                   : AC-3\nFormat/Info                              : Audio Coding 3\nMode extension                           : CM (complete main)\nCodec ID                                 : 2000\nDuration                                 : 3h 8mn\nBit rate mode                            : Constant\nBit rate                                 : 448 Kbps\nChannel(s)                               : 6 channels\nChannel positions                        : Front: L C R, Side: L R, LFE\nSampling rate                            : 48.0 KHz\nBit depth                                : 16 bits\nCompression mode                         : Lossy\nStream size                              : 604 MiB (19%)\nAlignment                                : Split accross interleaves\nInterleave, duration                     : 42 ms (1.00 video frame)\nInterleave, preload duration             : 500 ms\n\n\n[/spoiler]\n\n[/color][/b][/center]\n\n&amp;&amp;e4t67uk","torrent":{"xt":"urn:btih:8ea6e53b68e4dd01c1280355c78837fc51274229","amp;dn":"The+Green+Mile+-+Il+Miglio+Verde++%281999%29.BRrip.XviD+-+Italian+en","amp;tr":["udp%3A%2F%2Ftracker.openbittorrent.com%3A80","udp%3A%2F%2Fopen.demonii.com%3A1337","udp%3A%2F%2Ftracker.coppersurfer.tk%3A6969","udp%3A%2F%2Fexodus.desync.com%3A6969"],"infoHash":"8ea6e53b68e4dd01c1280355c78837fc51274229","infoHashBuffer":{"type":"Buffer","data":[142,166,229,59,104,228,221,1,193,40,3,85,199,136,55,252,81,39,66,41]},"announce":[],"urlList":[]}}